HIERARCHY
ROOT Hips
{
	OFFSET 0.00000 0.00000 0.00000
	CHANNELS 6 Xposition Yposition Zposition Yrotation Zrotation Xrotation 
	JOINT Lumbar
	{
		OFFSET 0 0 0
		CHANNELS 3 Zrotation Xrotation Yrotation
		JOINT Neck
		{
			OFFSET 0.00 0.2701 0.00
			CHANNELS 3 Zrotation Xrotation Yrotation
			End Site
			{
				OFFSET 0.00 0.1379 0.00
			}
		}
		JOINT RightShoulder
		{
			OFFSET 0.0119 0.2289 0.1181
			CHANNELS 3 Zrotation Xrotation Yrotation
			JOINT RightElbow
			{
				OFFSET 0.00 -0.1475 0.00
				CHANNELS 2 Zrotation Yrotation
				JOINT RightWrist
				{
					OFFSET 0.00 -0.1605 0.00
					CHANNELS 2 Zrotation Xrotation
					End Site
					{
						OFFSET 0.0040 -0.1068 0.0006
					}
				}
			}
		}
		JOINT LeftShoulder
		{
			OFFSET 0.0119 0.2289 -0.1181
			CHANNELS 3 Zrotation Xrotation Yrotation
			JOINT LeftElbow
			{
				OFFSET 0.00 -0.1475 0.00
				CHANNELS 2 Zrotation Yrotation
				JOINT LeftWrist
				{
					OFFSET 0.00 -0.1605 0.00
					CHANNELS 2 Zrotation Xrotation
					End Site
					{
						OFFSET 0.0040 -0.1068 -0.0006
					}
				}
			}
		}
	}
	JOINT RightHip
	{
		OFFSET 0.0316 -0.0424 0.0458
		CHANNELS 3 Zrotation Xrotation Yrotation
		JOINT RightKnee
		{
			OFFSET 0.00 -0.2438 0.00
			CHANNELS 1 Zrotation
			JOINT RightAnkle
			{
				OFFSET 0.00 -0.2449 0.00
				CHANNELS 3 Zrotation Xrotation Yrotation
				End Site
				{
					OFFSET 0.1237 -0.0542 0.0051
				}
			}
		}
	}
	JOINT LeftHip
	{
		OFFSET 0.0316 -0.0424 -0.0458
		CHANNELS 3 Zrotation Xrotation Yrotation
		JOINT LeftKnee
		{
			OFFSET 0.00 -0.2438 0.00
			CHANNELS 1 Zrotation
			JOINT LeftAnkle
			{
				OFFSET 0.00 -0.2449 0.00
				CHANNELS 3 Zrotation Xrotation Yrotation
				End Site
				{
					OFFSET 0.1237 -0.0542 -0.0051
				}
			}
		}
	}
}
MOTION
Frames: 30
Frame Time: 0.02
-0.00117 -5e-05 -0.00067 535.50021 -36.3063 1.11776 49.38311 -0.53434 -3.17469 -10.79777 6.01529 -0.39467 -6.03025 -5.43591 -30.92497 14.31635 106.78459 11.27405 3.00146 -19.21267 7.19983 1.00049 29.68261 -135.28083 22.35681 -5.91166 39.67588 -3.26606 -0.65433 -21.25601 -7.13577 -4.92621 -3.28895 42.75575 3.70403 0.11355 -25.96831 -7.20949 4.40967 2.94499
-0.00123 -9e-05 -0.00074 535.55038 -36.33105 1.12147 49.40672 -0.51836 -3.18003 -10.81002 6.06074 -0.39507 -6.02651 -5.47933 -30.76238 14.37963 106.70911 11.27024 2.95441 -19.27581 7.6036 -0.18067 29.82114 -131.57391 21.43519 -5.33783 39.67591 -3.30241 -0.89207 -21.24989 -7.12368 -4.91676 -3.27992 42.79498 3.77618 0.36528 -25.99081 -7.18708 4.36495 2.9223
-0.00128 -0.00013 -0.00081 535.60042 -36.35581 1.12514 49.43018 -0.50239 -3.18536 -10.82227 6.10622 -0.39548 -6.02292 -5.52267 -30.59953 14.44306 106.63266 11.2664 2.90753 -19.33904 8.00623 -1.35801 29.95969 -127.87846 20.51645 -4.76578 39.67605 -3.33871 -1.12934 -21.24384 -7.11159 -4.9073 -3.2709 42.83423 3.84812 0.61625 -26.01332 -7.16473 4.32036 2.89968
-0.00133 -0.00017 -0.00088 535.65044 -36.3805 1.12883 49.4537 -0.48645 -3.19068 -10.83447 6.15156 -0.39588 -6.01921 -5.56596 -30.43731 14.5062 106.55719 11.26258 2.86063 -19.40202 8.40878 -2.5355 30.09789 -124.18296 19.59767 -4.19373 39.67611 -3.37496 -1.36639 -21.23775 -7.09953 -4.89787 -3.2619 42.87337 3.92005 0.8672 -26.03576 -7.14239 4.27578 2.87706
-0.00139 -0.00021 -0.00095 535.70059 -36.40514 1.13259 49.4774 -0.47052 -3.19603 -10.8467 6.19681 -0.39628 -6.01532 -5.60929 -30.27565 14.56909 106.48323 11.25881 2.81354 -19.4648 8.81245 -3.71686 30.23585 -120.47596 18.67603 -3.6199 39.67599 -3.41126 -1.60378 -21.23156 -7.08748 -4.88847 -3.25289 42.91241 3.99217 1.1189 -26.05815 -7.12 4.23109 2.85438
-0.00144 -0.00025 -0.00102 535.75038 -36.43014 1.13608 49.50037 -0.4545 -3.20131 -10.85901 6.24275 -0.39669 -6.01234 -5.65264 -30.11034 14.63364 106.40163 11.25483 2.76709 -19.52898 9.21284 -4.88569 30.3756 -116.80502 17.76343 -3.05162 39.67667 -3.44754 -1.84078 -21.22581 -7.0753 -4.87889 -3.24383 42.9521 4.06371 1.36833 -26.08091 -7.09775 4.18671 2.83187
-0.0015 -0.00029 -0.00109 535.80084 -36.45442 1.14009 49.52478 -0.43865 -3.20671 -10.87105 6.28726 -0.39709 -6.0075 -5.69594 -29.9525 14.69477 106.33522 11.25126 2.71945 -19.59028 9.61938 -6.07839 30.51172 -113.06575 16.83366 -2.47283 39.67581 -3.48381 -2.07834 -21.21918 -7.06339 -4.86966 -3.2349 42.99049 4.13636 1.62205 -26.10289 -7.07523 4.14176 2.80904
-0.00155 -0.00034 -0.00116 535.8507 -36.47929 1.14363 49.54785 -0.42267 -3.21204 -10.88351 6.33308 -0.39749 -6.00444 -5.7392 -29.78787 14.75905 106.2553 11.24735 2.67279 -19.65418 10.02025 -7.24919 30.65095 -109.38917 15.9197 -1.90368 39.67625 -3.52011 -2.31533 -21.21338 -7.05124 -4.86013 -3.22586 43.02998 4.20796 1.87182 -26.12562 -7.05296 4.09733 2.7865
-0.0016 -0.00038 -0.00122 535.89976 -36.50522 1.14655 49.56931 -0.40643 -3.2171 -10.89581 6.3806 -0.3979 -6.00335 -5.78281 -29.61433 14.82727 106.15663 11.24285 2.6278 -19.72156 10.41438 -8.39323 30.79507 -105.78895 15.02477 -1.34629 39.67875 -3.5564 -2.55199 -21.20855 -7.03875 -4.85016 -3.21663 43.07126 4.27842 2.11681 -26.14918 -7.031 4.05351 2.76432
-0.00166 -0.00042 -0.00132 535.95322 -36.52605 1.15293 49.60014 -0.39136 -3.22317 -10.907 6.41865 -0.39828 -5.99029 -5.82559 -29.4902 14.87311 106.15911 11.24122 2.57462 -19.76985 10.8479 -9.69131 30.91434 -101.74848 14.01946 -0.72113 39.67083 -3.59261 -2.79164 -21.19798 -7.02806 -4.8425 -3.20831 43.10356 4.35586 2.38946 -26.1677 -7.00728 4.0061 2.7401
-0.0017 -0.00046 -0.00134 535.99751 -36.55701 1.15207 49.61114 -0.37407 -3.22745 -10.92181 6.47646 -0.39873 -6.00286 -5.86939 -29.2631 14.96596 105.95263 11.23385 2.53782 -19.85778 11.19785 -10.66427 31.08389 -98.63769 13.24765 -0.23909 39.68399 -3.62906 -3.02423 -21.19962 -7.0137 -4.83011 -3.19818 43.15394 4.41831 2.60364 -26.197 -6.98723 3.96632 2.72019
-0.00162 -0.00052 -0.00118 536.01592 -36.62127 1.13082 49.56849 -0.34849 -3.22381 -10.93713 6.59069 -0.39939 -6.0837 -5.92221 -28.7402 15.19027 105.12898 11.20855 2.55375 -20.0606 11.31941 -10.7353 31.41032 -98.10052 13.1192 -0.15315 39.76301 -3.66585 -3.2445 -21.2345 -6.98811 -4.80318 -3.18226 43.26167 4.4414 2.65749 -26.255 -6.97759 3.94713 2.71199
-0.00153 -0.00059 -0.00094 536.0255 -36.6947 1.10251 49.50632 -0.32114 -3.21883 -10.9585 6.72432 -0.40012 -6.19079 -5.97505 -28.11668 15.46078 104.10281 11.1782 2.5847 -20.30194 11.35639 -10.48012 31.78354 -98.49623 13.22579 -0.21078 39.86164 -3.70318 -3.4569 -21.28178 -6.95899 -4.77173 -3.16465 43.38603 4.44909 2.65302 -26.32394 -6.97154 3.93561 2.7081
-0.00146 -0.00065 -0.00073 536.0393 -36.76031 1.07767 49.45188 -0.29593 -3.21661 -10.98243 6.84771 -0.40082 -6.28705 -6.02366 -27.54738 15.70927 103.19889 11.15118 2.60366 -20.52182 11.43204 -10.3826 32.12326 -98.44581 13.22177 -0.19992 39.94616 -3.74018 -3.66762 -21.32344 -6.93232 -4.74342 -3.14839 43.49785 4.46271 2.6746 -26.3885 -6.96367 3.92089 2.70236
-0.00131 -0.00071 -0.00055 536.05125 -36.84126 1.0513 49.40002 -0.26484 -3.20579 -10.98126 6.9773 -0.40152 -6.37817 -6.08956 -26.94059 15.96448 102.17028 11.1185 2.64434 -20.75901 11.5085 -10.25113 32.51558 -98.47629 13.22988 -0.20109 40.05297 -3.77656 -3.89836 -21.36469 -6.90232 -4.71073 -3.12979 43.63112 4.48091 2.69622 -26.45078 -6.95673 3.90521 2.69633
-0.00133 -0.00077 -0.00029 536.06616 -36.89257 1.02694 49.34094 -0.24589 -3.21194 -11.03719 7.09837 -0.40223 -6.48691 -6.12015 -26.38984 16.21377 101.34929 11.09799 2.64346 -20.96861 11.56078 -10.10499 32.80838 -98.57773 13.27391 -0.21367 40.11763 -3.81557 -4.08823 -21.41021 -6.87813 -4.68583 -3.11554 43.7232 4.4858 2.70617 -26.52014 -6.94852 3.89302 2.69174
-0.00176 -0.00083 0.00015 536.08165 -36.8595 1.00587 49.24272 -0.25803 -3.27007 -11.21864 7.19334 -0.40291 -6.6305 -6.04768 -26.00641 16.45925 101.18866 11.09834 2.52353 -21.09702 11.58987 -10.07348 32.82418 -98.47585 13.30876 -0.19996 40.06569 -3.85121 -4.14268 -21.46062 -6.87339 -4.68581 -3.11489 43.70246 4.45796 2.67624 -26.60848 -6.93785 3.89167 2.69192
-0.00236 -0.00088 0.00068 536.1027 -36.797 0.98789 49.14224 -0.28287 -3.34404 -11.46199 7.27893 -0.4036 -6.79133 -5.9411 -25.68724 16.6923 101.23825 11.11335 2.36171 -21.1947 11.59442 -10.02806 32.73693 -98.43728 13.37878 -0.19593 39.97077 -3.89134 -4.15988 -21.51585 -6.87428 -4.69348 -3.11855 43.6396 4.41661 2.63861 -26.7031 -6.92555 3.8932 2.69319
-0.00292 -0.00093 0.00119 536.12704 -36.7473 0.97099 49.0587 -0.30397 -3.4081 -11.69845 7.36699 -0.40429 -6.95027 -5.8533 -25.34388 16.91588 101.1655 11.13127 2.21897 -21.30451 11.59377 -9.9352 32.69013 -98.49112 13.46889 -0.20357 39.89125 -3.93641 -4.21137 -21.57111 -6.87073 -4.69599 -3.11938 43.59165 4.38205 2.62154 -26.79358 -6.91263 3.89113 2.69263
-0.00334 -0.00097 0.00162 536.12468 -36.69756 0.94301 48.90789 -0.31699 -3.48516 -11.84986 7.46214 -0.40495 -7.08891 -5.75008 -24.96714 17.20653 101.19376 11.11011 2.07505 -21.42661 11.65454 -10.04333 32.66993 -98.09683 13.42433 -0.1526 39.82582 -3.95243 -4.19318 -21.61646 -6.87441 -4.70488 -3.12351 43.55864 4.34666 2.53891 -26.89022 -6.90514 3.89814 2.69737
-0.00409 -0.00105 0.00223 536.18167 -36.64429 0.93936 48.89615 -0.34917 -3.53693 -12.18752 7.5415 -0.40568 -7.26872 -5.67286 -24.68741 17.35191 101.07055 11.17201 1.92536 -21.51133 11.58852 -9.75208 32.57174 -98.60005 13.65372 -0.21885 39.72566 -4.02953 -4.30649 -21.68467 -6.86516 -4.703 -3.12219 43.48868 4.30693 2.58109 -26.97492 -6.88643 3.88791 2.69187
-0.00577 -0.00122 0.00324 536.38111 -36.55804 0.99861 49.27288 -0.43696 -3.53287 -13.06979 7.5669 -0.40658 -7.59703 -5.65963 -24.56023 17.11868 100.42202 11.47553 1.7528 -21.53452 11.12854 -8.20431 32.26394 -101.90071 14.73286 -0.65226 39.4986 -4.27872 -4.83463 -21.80791 -6.81243 -4.66381 -3.10139 43.28923 4.28557 3.06461 -27.02939 -6.83263 3.81969 2.65234
-0.00775 -0.00142 0.00444 536.64369 -36.47456 1.0829 49.78691 -0.54235 -3.50013 -14.12751 7.57901 -0.40759 -7.95704 -5.67735 -24.54285 16.73767 99.62364 11.85897 1.57847 -21.51494 10.55159 -6.28491 31.88613 -106.03984 16.06728 -1.19477 39.24715 -4.58868 -5.48889 -21.95785 -6.74774 -4.6145 -3.07553 43.06101 4.25592 3.65877 -27.07096 -6.76831 3.73553 2.60331
-0.00956 -0.00161 0.00558 536.89079 -36.41015 1.15816 50.23826 -0.63605 -3.468 -15.07677 7.60539 -0.40853 -8.27903 -5.69075 -24.54702 16.40893 98.93333 12.19572 1.41678 -21.49188 10.06123 -4.64183 31.55101 -109.56505 17.21551 -1.65565 39.03221 -4.86744 -6.05705 -22.09667 -6.69268 -4.5737 -3.05426 42.87064 4.21166 4.13759 -27.11538 -6.71185 3.66533 2.56238
-0.01155 -0.00179 0.0066 537.08302 -36.26024 1.2238 50.69929 -0.7464 -3.48624 -16.15497 7.59666 -0.40944 -8.70845 -5.65943 -24.27106 16.135 98.08789 12.57765 1.20582 -21.56302 9.42857 -2.54929 31.16022 -114.05725 18.65717 -2.24929 38.70261 -5.16017 -6.74384 -22.22057 -6.61993 -4.51705 -3.02371 42.57418 4.24212 4.88181 -27.17201 -6.64273 3.56802 2.50614
-0.01322 -0.002 0.00791 537.40352 -36.28775 1.31513 51.16203 -0.82532 -3.39584 -16.99857 7.6581 -0.41058 -8.91248 -5.73204 -24.57955 15.72156 97.51923 12.88316 1.09493 -21.43007 9.06515 -1.29886 30.87785 -116.75735 19.55308 -2.59588 38.61391 -5.43983 -7.21596 -22.39541 -6.58134 -4.49043 -3.01094 42.49244 4.11817 5.11089 -27.20099 -6.59701 3.52193 2.47872
-0.01413 -0.00227 0.00997 538.07004 -36.81955 1.47323 51.68968 -0.81951 -2.98453 -17.21139 7.91601 -0.41126 -8.56155 -6.05819 -26.68515 14.87551 97.82133 12.96722 1.28442 -20.72814 9.47233 -2.51842 30.84443 -114.09541 18.83306 -2.20143 39.13545 -5.65411 -7.04641 -22.58881 -6.63811 -4.55333 -3.05081 43.01054 3.54418 3.79244 -27.14856 -6.62285 3.63345 2.54012
-0.01468 -0.00256 0.01232 538.86138 -37.52731 1.65573 52.1978 -0.78014 -2.47017 -17.17159 8.24507 -0.41237 -7.96794 -6.49247 -29.33701 13.90889 98.39405 12.9697 1.57087 -19.82566 10.15525 -4.58894 30.93438 -109.63873 17.56323 -1.56048 39.91261 -5.85554 -6.65935 -22.85443 -6.72999 -4.64593 -3.10826 43.74581 2.82003 1.96932 -27.0702 -6.67184 3.79492 2.62965
-0.01527 -0.00283 0.01452 539.59166 -38.14458 1.82602 52.65211 -0.75198 -2.02107 -17.20651 8.54208 -0.414 -7.4369 -6.89489 -31.59885 13.05348 98.79483 13.00363 1.79718 -19.02523 10.71257 -6.23404 31.01437 -106.14083 16.57571 -1.05352 40.61199 -6.07261 -6.38476 -23.16238 -6.80708 -4.72228 -3.1562 44.3821 2.18147 0.44256 -27.00914 -6.7073 3.92527 2.70167
-0.01638 -0.00312 0.01678 540.34533 -38.80569 2.00278 53.37178 -0.74179 -1.49257 -17.41257 8.83778 -0.41264 -7.11108 -7.22704 -34.45723 11.95854 99.39319 13.06463 2.08971 -18.17619 11.26556 -8.02719 30.90259 -102.07092 15.46116 -0.45788 41.14539 -6.25154 -6.05985 -23.15275 -6.87895 -4.8102 -3.21055 45.01915 1.4691 -1.36005 -26.92456 -6.75486 4.08998 2.79294
